<?xml version="1.0" encoding="UTF-8" standalone="no"?>
<svg
   xmlns:dc="http://purl.org/dc/elements/1.1/"
   xmlns:cc="http://creativecommons.org/ns#"
   xmlns:rdf="http://www.w3.org/1999/02/22-rdf-syntax-ns#"
   xmlns:svg="http://www.w3.org/2000/svg"
   xmlns="http://www.w3.org/2000/svg"
   xmlns:sodipodi="http://sodipodi.sourceforge.net/DTD/sodipodi-0.dtd"
   xmlns:inkscape="http://www.inkscape.org/namespaces/inkscape"
   viewBox="0 0 533.449 533.445"
   version="1.1"
   id="svg16"
   sodipodi:docname="pomoTraining-icon.svg"
   inkscape:version="1.0.2 (e86c870879, 2021-01-15)">
  <metadata
     id="metadata22">
    <rdf:RDF>
      <cc:Work
         rdf:about="">
        <dc:format>image/svg+xml</dc:format>
        <dc:type
           rdf:resource="http://purl.org/dc/dcmitype/StillImage" />
        <dc:title />
      </cc:Work>
    </rdf:RDF>
  </metadata>
  <defs
     id="defs20" />
  <sodipodi:namedview
     pagecolor="#ffffff"
     bordercolor="#666666"
     borderopacity="1"
     objecttolerance="10"
     gridtolerance="10"
     guidetolerance="10"
     inkscape:pageopacity="0"
     inkscape:pageshadow="2"
     inkscape:window-width="1920"
     inkscape:window-height="1019"
     id="namedview18"
     showgrid="false"
     inkscape:zoom="1.4914387"
     inkscape:cx="264.24456"
     inkscape:cy="327.21242"
     inkscape:window-x="0"
     inkscape:window-y="0"
     inkscape:window-maximized="1"
     inkscape:current-layer="svg16"
     inkscape:document-rotation="0" />
  <path
     shape-rendering="geometricPrecision"
     fill="#8946f3"
     d="m 106.924,531.206 c -5.785,-3.527 -7.9,-7.999 -7.462,-15.774 l 0.377,-6.701 23.361,-23.507 -3.733,-3.258 C 97.141,462.486 85.137,449.141 71.58,428.729 53.67,401.763 41.264,370.075 35.692,337.067 33.344,323.16 32.458,290.305 34.051,276.259 c 5.203,-45.887 21.927,-86.885 49.92,-122.377 7.665,-9.72 26.48,-28.581 36.562,-36.655 28.955,-23.185 68.808,-41.283 104,-47.229 L 232,68.737 232.586,34.133 223.226,34.11 C 208.041,34.072 200.763,29.118 199.704,18.1 199.11,11.918 202.357,5.292 207.552,2.08 210.778,0.088 213.25,0 266.667,0 c 54.778,0 55.811,0.039 59.374,2.24 7.818,4.833 10.083,16.762 4.634,24.415 -3.796,5.331 -9.58,7.427 -20.568,7.455 l -9.36,0.023 0.586,34.526 7.467,1.285 c 28.168,4.845 61.45,18.136 85.867,34.288 36.151,23.915 62.674,53.994 81.621,92.568 17.629,35.889 24.945,70.13 23.666,110.761 -0.815,25.896 -3.768,42.854 -11.64,66.839 -12.954,39.47 -39.53,78.394 -72.314,105.914 l -5.867,4.925 10.817,10.98 c 5.95,6.04 11.35,12.03 12,13.31 1.92,3.783 1.427,12.192 -0.944,16.08 -4.363,7.156 -14.745,9.941 -22.8,6.119 -1.861,-0.883 -9.07,-7.308 -16.021,-14.276 l -12.638,-12.671 -11.873,5.7 c -20.244,9.72 -39.063,15.744 -63.607,20.364 -8.124,1.53 -15.739,1.908 -38.4,1.908 -22.661,0 -30.276,-0.378 -38.4,-1.908 -24.545,-4.62 -43.364,-10.645 -63.607,-20.363 l -11.874,-5.701 -12.637,12.67 c -6.951,6.97 -14.16,13.394 -16.021,14.277 -4.834,2.294 -12.992,2.046 -17.204,-0.522 z M 371.2,333.466 c 24.702,-4.855 43.391,-12.85 55.204,-23.615 3.665,-3.34 6.663,-6.553 6.663,-7.141 0,-0.588 1.448,-2.899 3.22,-5.135 7.123,-8.995 10.871,-21.904 10.799,-37.196 -0.075,-15.714 -2.79,-23.632 -11.714,-34.15 -6.054,-7.136 -15.445,-13.329 -22.84,-15.063 -3.08,-0.721 -6.242,-1.824 -7.029,-2.45 -1.93,-1.535 -26.839,-1.59 -30.14,-0.066 -1.41,0.651 -6.163,2.032 -10.563,3.068 -9.807,2.31 -19.052,6.38 -26.268,11.564 -3,2.155 -5.912,3.918 -6.472,3.918 -1.272,0 -17.402,15.148 -17.397,16.338 0.002,0.479 -1.253,2.519 -2.79,4.533 -2.573,3.374 -3.246,3.662 -8.545,3.662 h -5.752 l 0.557,-88 24.695,-0.597 2.202,-5.043 c 2.27,-5.198 8.758,-26.31 9.625,-31.318 0.431,-2.495 0.07,-2.908 -3.083,-3.53 -1.965,-0.386 -4.532,-1.132 -5.705,-1.657 -2.36,-1.057 -48.13,-9.588 -51.436,-9.588 -3.122,0 -6.651,4.658 -12.934,17.067 -4.854,9.587 -14.03,34.121 -14.03,37.512 0,0.604 -0.699,2.611 -1.552,4.46 -2.143,4.642 -6.249,21.722 -9.655,40.161 -1.572,8.507 -3.29,16.427 -3.817,17.6 -1.822,4.05 -8.076,49.251 -9.131,66.006 l -0.614,9.727 4.118,2.443 c 11.011,6.534 29.461,15.601 33.947,16.684 1.74,0.42 5.1,1.643 7.467,2.719 5.105,2.32 19.266,5.755 30.437,7.382 l 10.666,1.611 c 1.467,0.245 13.947,0.317 27.734,0.16 18.092,-0.204 27.589,-0.78 34.133,-2.066 z M 22.751,174.646 C 7.356,158.293 0,139.59 0,116.8 0,101.799 2.432,91.598 9.282,77.867 13.501,69.411 15.932,66.144 23.969,58.133 42.514,39.648 61.997,32.103 87.945,33.358 c 21.047,1.018 38.705,8.611 53.792,23.13 l 5.737,5.522 -10.003,5.542 C 94.858,91.162 56.4,129.665 34.059,171.084 c -2.403,4.454 -4.748,8.333 -5.212,8.62 -0.464,0.287 -3.207,-1.99 -6.096,-5.058 z m 479.963,2.45 C 476.582,129.17 440.81,92.456 396.12,67.693 l -9.747,-5.4 2.814,-3.29 c 7.726,-9.032 22.622,-18.191 36.946,-22.717 15.71,-4.963 39.151,-3.854 55.231,2.611 19.174,7.71 35.63,23.406 44.57,42.513 10.058,21.494 10.016,49.374 -0.107,71.009 -3.812,8.144 -10.93,18.273 -16.879,24.016 l -4.319,4.17 z"
     id="path14"
     style="display:inline" />
  <path
     style="fill:#ffffff;stroke:#ffffff;stroke-width:1;paint-order:markers stroke fill;stroke-opacity:1;stroke-miterlimit:4;stroke-dasharray:none"
     d="m 299.87529,333.6445 c -10.90371,-1.73327 -22.0493,-4.34027 -28.76855,-6.72909 -3.16902,-1.12665 -7.97815,-2.82157 -10.68694,-3.76647 -5.51999,-1.92554 -24.58741,-11.28366 -32.30666,-15.85582 l -5.04806,-2.98999 0.4992,-7.61346 c 1.02198,-15.58657 5.96863,-53.61767 8.27231,-63.59968 0.5532,-2.39701 2.93024,-13.56073 5.28233,-24.80826 4.88354,-23.35281 5.64459,-26.50087 8.75305,-36.20665 1.24011,-3.8721 3.21627,-10.0574 4.39146,-13.74512 6.75818,-21.20691 18.58323,-44.51296 23.169,-45.66392 3.90391,-0.97982 57.39374,9.58259 60.40455,11.92783 0.5791,0.45108 0.53478,1.64279 -0.17721,4.76468 -1.22172,5.35694 -7.84162,26.07554 -9.60586,30.06389 l -1.35492,3.06302 -6.1509,0.4366 c -3.383,0.24013 -8.97092,0.4366 -12.41759,0.4366 h -6.26669 l -6.7e-4,11.56602 c -4.1e-4,6.36131 -0.20054,26.27496 -0.44474,44.25257 l -0.44398,32.68656 h 5.89714 5.89714 l 2.28164,-2.41925 c 1.2549,-1.33059 2.86414,-3.56103 3.57608,-4.95654 1.66143,-3.25668 13.51553,-14.24551 19.32421,-17.91366 15.25221,-9.63172 18.0918,-10.9365 32.7338,-15.04104 17.72476,-4.96874 30.17341,-5.10704 44.23613,-0.49146 9.93441,3.26061 16.30033,7.23467 22.80761,14.23813 9.7129,10.45351 12.93767,19.17521 12.972,35.08409 0.0301,13.96164 -3.00179,25.22474 -9.56035,35.51513 -4.81589,7.55613 -12.32533,15.46791 -18.58709,19.58295 -14.34423,9.42657 -38.26295,17.27516 -57.50571,18.8697 -4.32708,0.35856 -18.12596,0.62636 -30.66419,0.59513 -18.61777,-0.0464 -24.21027,-0.28148 -30.50746,-1.28249 z"
     id="path13" />
</svg>
