<svg xmlns="http://www.w3.org/2000/svg" viewBox="0 0 533.449 533.445"  xmlns:v="https://vecta.io/nano"><path fill="#fefefe" d="M106.924 531.206c-5.785-3.527-7.9-7.999-7.462-15.774l.377-6.701L123.2 485.24l-5.867-4.995c-44.436-37.835-71.941-86.082-81.625-143.178-2.399-14.143-3.251-45.98-1.633-60.972 7.643-70.782 45.186-132.62 104.161-171.566 24.735-16.335 54.778-28.617 82.51-33.732l10.454-2.073c.995-.291 1.333-4.73 1.333-17.49v-17.1l-9.333-.024c-10.96-.028-16.749-2.128-20.542-7.455-5.449-7.653-3.184-19.582 4.635-24.414C210.855.039 211.889 0 266.667 0s55.811.039 59.374 2.24c7.818 4.833 10.083 16.762 4.634 24.415-3.793 5.327-9.581 7.427-20.542 7.455l-9.333.023v17.1c0 12.779.337 17.19 1.333 17.458.734.197 5.803 1.198 11.266 2.225 34.851 6.554 71.342 23.744 100.985 47.571 18.292 14.704 39.288 38.65 51.613 58.862 15.356 25.186 26.554 55.371 31.705 85.464 2.667 15.581 3.19 48.585 1.036 65.487-7.685 60.327-35.822 111.998-82.738 151.945l-5.867 4.995 23.361 23.491.378 6.701c.438 7.775-1.678 12.247-7.462 15.774-4.213 2.568-12.37 2.816-17.204.522-1.861-.883-9.068-7.305-16.015-14.27l-12.63-12.664-12.947 6.174c-23.26 11.091-48.634 18.369-74.544 21.381-14.38 1.672-52.636.713-65.337-1.638-23.678-4.382-42.918-10.553-63.073-20.23l-11.874-5.7-12.637 12.67c-6.951 6.97-14.16 13.394-16.021 14.277-4.834 2.294-12.992 2.046-17.204-.522zM22.77 174.666C7.439 158.382 0 139.578 0 117.107c0-15.13 2.117-24.375 8.719-38.074 4.716-9.786 6.507-12.25 15.115-20.8C42.652 39.542 61.803 32.122 88 33.37c20.965.998 39.164 8.842 53.967 23.262l5.56 5.415-7.808 4.237C102.04 86.73 68.96 117.18 44.501 153.932c-3.978 5.977-9.018 14.346-11.2 18.597s-4.258 7.73-4.613 7.733-3.018-2.515-5.917-5.595zm476.564-3.22c-22.277-41.923-62.005-81.441-105.72-105.162l-7.81-4.237 5.56-5.415c14.805-14.42 33.003-22.264 53.968-23.262 26.198-1.248 45.348 6.172 64.166 24.862 8.608 8.55 10.4 11.014 15.115 20.8 6.602 13.7 8.72 22.945 8.72 38.075 0 22.47-7.44 41.274-22.771 57.56-2.9 3.08-5.563 5.59-5.918 5.579s-2.744-3.971-5.31-8.8z"/><path fill="#e8e8e8" d="M106.924 531.206c-5.785-3.527-7.9-7.999-7.462-15.774l.377-6.701 23.361-23.507-3.733-3.258c-22.326-19.48-34.33-32.825-47.887-53.237-17.91-26.966-30.316-58.654-35.888-91.662-2.348-13.907-3.234-46.762-1.641-60.808 5.203-45.887 21.927-86.885 49.92-122.377 7.665-9.72 26.48-28.581 36.562-36.655 28.955-23.185 68.808-41.283 104-47.229L232 68.737l.586-34.604-9.36-.023c-15.185-.038-22.463-4.992-23.522-16.01-.594-6.182 2.653-12.808 7.848-16.02C210.778.088 213.25 0 266.667 0c54.778 0 55.811.039 59.374 2.24 7.818 4.833 10.083 16.762 4.634 24.415-3.796 5.331-9.58 7.427-20.568 7.455l-9.36.023.586 34.526 7.467 1.285c28.168 4.845 61.45 18.136 85.867 34.288 36.151 23.915 62.674 53.994 81.621 92.568 17.629 35.889 24.945 70.13 23.666 110.761-.815 25.896-3.768 42.854-11.64 66.839-12.954 39.47-39.53 78.394-72.314 105.914l-5.867 4.925 10.817 10.98c5.95 6.04 11.35 12.03 12 13.31 1.92 3.783 1.427 12.192-.944 16.08-4.363 7.156-14.745 9.941-22.8 6.119-1.861-.883-9.07-7.308-16.021-14.276l-12.638-12.671-11.873 5.7c-20.244 9.72-39.063 15.744-63.607 20.364-8.124 1.53-15.739 1.908-38.4 1.908s-30.276-.378-38.4-1.908c-24.545-4.62-43.364-10.645-63.607-20.363l-11.874-5.701-12.637 12.67c-6.951 6.97-14.16 13.394-16.021 14.277-4.834 2.294-12.992 2.046-17.204-.522zm248.863-196.123c.557-.504 5.214-1.482 10.349-2.174 21.048-2.833 39.378-9.22 52.683-18.354 5.508-3.781 15.665-14.878 19.362-21.153 3.513-5.963 7.686-20.206 7.686-26.234 0-2.63.57-4.856 1.333-5.212 1.067-.498 1.067-.747 0-1.245-.796-.371-1.333-2.692-1.333-5.754 0-11.38-6.398-24.885-15.644-33.023-5.276-4.645-15.612-10.085-22.223-11.697-12.643-3.084-35.926-1.838-44.83 2.399-1.744.83-6.622 2.797-10.84 4.372-12.713 4.746-28.502 16.963-38.398 29.709l-4.8 6.183-12.065-.633v-88.534l12.513-.3c10.72-.257 12.66-.573 13.53-2.2.934-1.743 7.438-22.937 9.965-32.471.589-2.221.832-4.277.54-4.569s-12.234-2.677-26.54-5.3-26.842-5.247-27.86-5.83c-4.778-2.74-6.584-1.46-12.949 9.17-5.907 9.866-10.203 19.942-14.739 34.567-1.183 3.813-2.529 7.413-2.99 8-.976 1.237-7.539 27.787-10.152 41.067-.982 4.986-2.202 10.026-2.711 11.2-1.68 3.868-7.26 39.489-9.609 61.333-.725 6.747-1.727 12.723-2.225 13.28-1.27 1.42-1.138 12.32.15 12.32.58 0 4.383 2.133 8.45 4.74 8 5.128 17.533 10.193 19.183 10.193.566 0 4.245 1.49 8.177 3.31 8.514 3.94 27.715 8.953 40.717 10.63 5.142.664 10.07 1.61 10.95 2.104 2.117 1.188 43.016 1.286 44.32.106zM22.75 174.646C7.356 158.293 0 139.59 0 116.8c0-15.001 2.432-25.202 9.282-38.933 4.219-8.456 6.65-11.723 14.687-19.734 18.545-18.485 38.028-26.03 63.976-24.775 21.047 1.018 38.705 8.611 53.792 23.13l5.737 5.522-10.003 5.542C94.858 91.162 56.4 129.665 34.059 171.084c-2.403 4.454-4.748 8.333-5.212 8.62s-3.207-1.99-6.096-5.058zm479.963 2.45C476.582 129.17 440.81 92.456 396.12 67.693l-9.747-5.4 2.814-3.29c7.726-9.032 22.622-18.191 36.946-22.717 15.71-4.963 39.151-3.854 55.231 2.611 19.174 7.71 35.63 23.406 44.57 42.513 10.058 21.494 10.016 49.374-.107 71.009-3.812 8.144-10.93 18.273-16.879 24.016l-4.319 4.17z"/><path fill="#d1d1d1" d="M106.924 531.206c-5.785-3.527-7.9-7.999-7.462-15.774l.377-6.701 23.361-23.507-3.733-3.258c-22.326-19.48-34.33-32.825-47.887-53.237-17.91-26.966-30.316-58.654-35.888-91.662-2.348-13.907-3.234-46.762-1.641-60.808 5.203-45.887 21.927-86.885 49.92-122.377 7.665-9.72 26.48-28.581 36.562-36.655 28.955-23.185 68.808-41.283 104-47.229L232 68.737l.586-34.604-9.36-.023c-15.185-.038-22.463-4.992-23.522-16.01-.594-6.182 2.653-12.808 7.848-16.02C210.778.088 213.25 0 266.667 0c54.778 0 55.811.039 59.374 2.24 7.818 4.833 10.083 16.762 4.634 24.415-3.796 5.331-9.58 7.427-20.568 7.455l-9.36.023.586 34.526 7.467 1.285c28.168 4.845 61.45 18.136 85.867 34.288 36.151 23.915 62.674 53.994 81.621 92.568 17.629 35.889 24.945 70.13 23.666 110.761-.815 25.896-3.768 42.854-11.64 66.839-12.954 39.47-39.53 78.394-72.314 105.914l-5.867 4.925 10.817 10.98c5.95 6.04 11.35 12.03 12 13.31 1.92 3.783 1.427 12.192-.944 16.08-4.363 7.156-14.745 9.941-22.8 6.119-1.861-.883-9.07-7.308-16.021-14.276l-12.638-12.671-11.873 5.7c-20.244 9.72-39.063 15.744-63.607 20.364-8.124 1.53-15.739 1.908-38.4 1.908s-30.276-.378-38.4-1.908c-24.545-4.62-43.364-10.645-63.607-20.363l-11.874-5.701-12.637 12.67c-6.951 6.97-14.16 13.394-16.021 14.277-4.834 2.294-12.992 2.046-17.204-.522zM363.596 334.37c6.236-.896 12.297-2.058 13.47-2.58s6.214-1.983 11.2-3.243 14.107-4.72 20.267-7.687c9.474-4.563 12.437-6.648 19.226-13.527 4.414-4.473 8.802-9.813 9.75-11.866l4.424-9.6c4.058-8.815 5.168-14.237 5.146-25.142-.029-13.732-.934-16.526-10.69-32.992-2.427-4.098-16.275-13.928-22.52-15.986-19.959-6.579-44.9-3.793-66.977 7.48-13.604 6.947-23.452 14.68-31.964 25.1l-6.052 7.406H297.6V163.2h25.349l2.724-8.8c1.498-4.84 3.058-10.24 3.467-12s1.651-5.24 2.761-7.733 2.294-5.911 2.631-7.594l.612-3.06-18.505-3.418c-10.178-1.879-19.54-3.918-20.804-4.532s-2.79-.81-3.393-.438-1.359.249-1.682-.274-4.469-1.555-9.212-2.292c-6.545-1.019-8.93-1.044-9.886-.105-3.019 2.96-14.71 25.772-16.064 31.341-.396 1.629-1.954 5.661-3.464 8.961-2.293 5.014-8.22 26.402-14.875 53.677-1.778 7.289-6.363 33.735-7.952 45.867-.653 4.987-1.61 10.027-2.128 11.2-1.016 2.306-4.263 29.89-4.218 35.837.024 3.132.718 4.088 5.066 6.975 14.535 9.647 36.998 19.093 54.106 22.751 2.934.627 6.294 1.623 7.467 2.212 7.833 3.933 53.542 5.536 73.996 2.595zM22.751 174.646C7.356 158.293 0 139.59 0 116.8c0-15.001 2.432-25.202 9.282-38.933 4.219-8.456 6.65-11.723 14.687-19.734 18.545-18.485 38.028-26.03 63.976-24.775 21.047 1.018 38.705 8.611 53.792 23.13l5.737 5.522-10.003 5.542C94.858 91.162 56.4 129.665 34.059 171.084c-2.403 4.454-4.748 8.333-5.212 8.62s-3.207-1.99-6.096-5.058zm479.963 2.45C476.582 129.17 440.81 92.456 396.12 67.693l-9.747-5.4 2.814-3.29c7.726-9.032 22.622-18.191 36.946-22.717 15.71-4.963 39.151-3.854 55.231 2.611 19.174 7.71 35.63 23.406 44.57 42.513 10.058 21.494 10.016 49.374-.107 71.009-3.812 8.144-10.93 18.273-16.879 24.016l-4.319 4.17z"/><path fill="#b2b1b6" d="M106.924 531.206c-5.785-3.527-7.9-7.999-7.462-15.774l.377-6.701 23.361-23.507-3.733-3.258c-22.326-19.48-34.33-32.825-47.887-53.237-17.91-26.966-30.316-58.654-35.888-91.662-2.348-13.907-3.234-46.762-1.641-60.808 5.203-45.887 21.927-86.885 49.92-122.377 7.665-9.72 26.48-28.581 36.562-36.655 28.955-23.185 68.808-41.283 104-47.229L232 68.737l.586-34.604-9.36-.023c-15.185-.038-22.463-4.992-23.522-16.01-.594-6.182 2.653-12.808 7.848-16.02C210.778.088 213.25 0 266.667 0c54.778 0 55.811.039 59.374 2.24 7.818 4.833 10.083 16.762 4.634 24.415-3.796 5.331-9.58 7.427-20.568 7.455l-9.36.023.586 34.526 7.467 1.285c28.168 4.845 61.45 18.136 85.867 34.288 36.151 23.915 62.674 53.994 81.621 92.568 17.629 35.889 24.945 70.13 23.666 110.761-.815 25.896-3.768 42.854-11.64 66.839-12.954 39.47-39.53 78.394-72.314 105.914l-5.867 4.925 10.817 10.98c5.95 6.04 11.35 12.03 12 13.31 1.92 3.783 1.427 12.192-.944 16.08-4.363 7.156-14.745 9.941-22.8 6.119-1.861-.883-9.07-7.308-16.021-14.276l-12.638-12.671-11.873 5.7c-20.244 9.72-39.063 15.744-63.607 20.364-8.124 1.53-15.739 1.908-38.4 1.908s-30.276-.378-38.4-1.908c-24.545-4.62-43.364-10.645-63.607-20.363l-11.874-5.701-12.637 12.67c-6.951 6.97-14.16 13.394-16.021 14.277-4.834 2.294-12.992 2.046-17.204-.522zm256.892-196.818c12.576-1.89 19.88-3.39 22.85-4.696 1.174-.516 5.974-2.261 10.667-3.878 15.148-5.217 23.84-10.71 32.91-20.798 11.613-12.917 16.764-26.483 16.788-44.216.017-12.746-2.18-20.88-8.01-29.665-6.75-10.168-15.392-16.628-26.844-20.065-9.68-2.904-31.377-3.194-42.922-.573-21.194 4.811-44.146 19.498-56.259 36-3.783 5.153-3.936 5.236-9.62 5.236H297.6V163.2h25.539l2.312-7.733c1.271-4.254 2.742-8.283 3.268-8.955s.861-1.631.746-2.133.29-2.112.9-3.579c1.822-4.376 4.903-16.02 4.379-16.545-.268-.268-5.975-1.49-12.682-2.716s-13.155-2.656-14.329-3.178c-2.49-1.107-30.072-6.361-33.395-6.361-2.893 0-10.143 10.479-14.39 20.8l-4.221 10.133c-.632 1.467-1.205 2.907-1.275 3.2s-.623 1.494-1.228 2.667-2.149 5.733-3.429 10.133l-5.126 17.6c-4.452 15.279-7.616 29.516-11.14 50.134-1.805 10.56-3.69 20.16-4.187 21.333s-1.205 4.533-1.57 7.467c-6.282 50.398-6.295 47.397.228 51.489 17.07 10.707 21.826 12.924 40.267 18.768 5.866 1.86 11.166 3.698 11.777 4.087 1.205.766 22.158 4.816 28.223 5.454 10.962 1.155 45.671.606 55.549-.877zM22.75 174.646C7.356 158.293 0 139.59 0 116.8c0-15.001 2.432-25.202 9.282-38.933 4.219-8.456 6.65-11.723 14.687-19.734 18.545-18.485 38.028-26.03 63.976-24.775 21.047 1.018 38.705 8.611 53.792 23.13l5.737 5.522-10.003 5.542C94.858 91.162 56.4 129.665 34.059 171.084c-2.403 4.454-4.748 8.333-5.212 8.62s-3.207-1.99-6.096-5.058zm479.963 2.45C476.582 129.17 440.81 92.456 396.12 67.693l-9.747-5.4 2.814-3.29c7.726-9.032 22.622-18.191 36.946-22.717 15.71-4.963 39.151-3.854 55.231 2.611 19.174 7.71 35.63 23.406 44.57 42.513 10.058 21.494 10.016 49.374-.107 71.009-3.812 8.144-10.93 18.273-16.879 24.016l-4.319 4.17z"/><path fill="#9885c9" d="M106.924 531.206c-5.785-3.527-7.9-7.999-7.462-15.774l.377-6.701 23.361-23.507-3.733-3.258c-22.326-19.48-34.33-32.825-47.887-53.237-17.91-26.966-30.316-58.654-35.888-91.662-2.348-13.907-3.234-46.762-1.641-60.808 5.203-45.887 21.927-86.885 49.92-122.377 7.665-9.72 26.48-28.581 36.562-36.655 28.955-23.185 68.808-41.283 104-47.229L232 68.737l.586-34.604-9.36-.023c-15.185-.038-22.463-4.992-23.522-16.01-.594-6.182 2.653-12.808 7.848-16.02C210.778.088 213.25 0 266.667 0c54.778 0 55.811.039 59.374 2.24 7.818 4.833 10.083 16.762 4.634 24.415-3.796 5.331-9.58 7.427-20.568 7.455l-9.36.023.586 34.526 7.467 1.285c28.168 4.845 61.45 18.136 85.867 34.288 36.151 23.915 62.674 53.994 81.621 92.568 17.629 35.889 24.945 70.13 23.666 110.761-.815 25.896-3.768 42.854-11.64 66.839-12.954 39.47-39.53 78.394-72.314 105.914l-5.867 4.925 10.817 10.98c5.95 6.04 11.35 12.03 12 13.31 1.92 3.783 1.427 12.192-.944 16.08-4.363 7.156-14.745 9.941-22.8 6.119-1.861-.883-9.07-7.308-16.021-14.276l-12.638-12.671-11.873 5.7c-20.244 9.72-39.063 15.744-63.607 20.364-8.124 1.53-15.739 1.908-38.4 1.908s-30.276-.378-38.4-1.908c-24.545-4.62-43.364-10.645-63.607-20.363l-11.874-5.701-12.637 12.67c-6.951 6.97-14.16 13.394-16.021 14.277-4.834 2.294-12.992 2.046-17.204-.522zm266.41-198.245c12.267-2.396 19.152-4.205 20.8-5.466.586-.45 2.986-1.418 5.333-2.152 17-5.32 36.216-22.382 42.807-38.01 4.577-10.85 6.232-29.687 3.63-41.298-2.41-10.753-10.818-22.456-20.986-29.207-6.095-4.047-17.596-7.761-24.032-7.761-2.178 0-4.257-.48-4.62-1.067-.807-1.306-12.982-1.43-13.78-.14-.314.509-3.569 1.265-7.231 1.68s-11.078 2.168-16.479 3.898c-15.982 5.12-35.799 19.46-45.895 33.215-3.654 4.978-3.846 5.08-9.505 5.08H297.6V163.2h25.435l1.288-4c.709-2.2 1.674-4.491 2.146-5.092s1.824-4.68 3.004-9.066 2.892-10.076 3.804-12.643c2.673-7.531 2.36-8.338-3.73-9.644-2.962-.635-6.088-1.155-6.947-1.155s-2.396-.475-3.414-1.055c-1.945-1.108-40.904-8.545-44.765-8.545-3.685 0-8.236 7.106-17.758 27.733-2.917 6.32-6.78 17.77-9.726 28.833-1.01 3.795-2.459 8.34-3.218 10.1-1.616 3.747-6.001 23.609-9.066 41.067-1.185 6.747-2.597 13.227-3.138 14.4s-1.997 9.574-3.236 18.667a6274.916 6274.916 0 0 1-3.25 23.566c-.548 3.867-1.295 11.787-1.661 17.6-.75 11.934-1.709 10.304 9.66 16.432l11.239 6.16c3.226 1.794 10.426 4.82 16 6.725s10.613 3.82 11.2 4.258c1.517 1.131 17.745 4.843 27.2 6.22l10.666 1.611c1.467.245 13.947.295 27.734.111 19.887-.265 27.38-.786 36.266-2.522zM22.75 174.646C7.356 158.293 0 139.59 0 116.8c0-15.001 2.432-25.202 9.282-38.933 4.219-8.456 6.65-11.723 14.687-19.734 18.545-18.485 38.028-26.03 63.976-24.775 21.047 1.018 38.705 8.611 53.792 23.13l5.737 5.522-10.003 5.542C94.858 91.162 56.4 129.665 34.059 171.084c-2.403 4.454-4.748 8.333-5.212 8.62s-3.207-1.99-6.096-5.058zm479.963 2.45C476.582 129.17 440.81 92.456 396.12 67.693l-9.747-5.4 2.814-3.29c7.726-9.032 22.622-18.191 36.946-22.717 15.71-4.963 39.151-3.854 55.231 2.611 19.174 7.71 35.63 23.406 44.57 42.513 10.058 21.494 10.016 49.374-.107 71.009-3.812 8.144-10.93 18.273-16.879 24.016l-4.319 4.17z"/><path fill="#9171d8" d="M106.924 531.206c-5.785-3.527-7.9-7.999-7.462-15.774l.377-6.701 23.361-23.507-3.733-3.258c-22.326-19.48-34.33-32.825-47.887-53.237-17.91-26.966-30.316-58.654-35.888-91.662-2.348-13.907-3.234-46.762-1.641-60.808 5.203-45.887 21.927-86.885 49.92-122.377 7.665-9.72 26.48-28.581 36.562-36.655 28.955-23.185 68.808-41.283 104-47.229L232 68.737l.586-34.604-9.36-.023c-15.185-.038-22.463-4.992-23.522-16.01-.594-6.182 2.653-12.808 7.848-16.02C210.778.088 213.25 0 266.667 0c54.778 0 55.811.039 59.374 2.24 7.818 4.833 10.083 16.762 4.634 24.415-3.796 5.331-9.58 7.427-20.568 7.455l-9.36.023.586 34.526 7.467 1.285c28.168 4.845 61.45 18.136 85.867 34.288 36.151 23.915 62.674 53.994 81.621 92.568 17.629 35.889 24.945 70.13 23.666 110.761-.815 25.896-3.768 42.854-11.64 66.839-12.954 39.47-39.53 78.394-72.314 105.914l-5.867 4.925 10.817 10.98c5.95 6.04 11.35 12.03 12 13.31 1.92 3.783 1.427 12.192-.944 16.08-4.363 7.156-14.745 9.941-22.8 6.119-1.861-.883-9.07-7.308-16.021-14.276l-12.638-12.671-11.873 5.7c-20.244 9.72-39.063 15.744-63.607 20.364-8.124 1.53-15.739 1.908-38.4 1.908s-30.276-.378-38.4-1.908c-24.545-4.62-43.364-10.645-63.607-20.363l-11.874-5.701-12.637 12.67c-6.951 6.97-14.16 13.394-16.021 14.277-4.834 2.294-12.992 2.046-17.204-.522zm266.41-198.202c15.586-3.1 21.335-4.96 33.6-10.874 10.2-4.918 26.133-16.723 26.133-19.362 0-.62 1.45-2.959 3.222-5.196 6.951-8.777 10.78-21.846 10.774-36.779-.006-15.99-2.693-23.957-11.631-34.494-2.66-3.136-7.392-7.398-10.514-9.471-5.89-3.912-17.547-7.761-23.499-7.761-1.884 0-3.723-.48-4.086-1.067-.807-1.306-14.048-1.432-14.846-.14-.315.509-3.542 1.262-7.172 1.672-7.332.83-21.643 5.06-27.941 8.26-2.252 1.144-7.413 4.449-11.47 7.344s-7.562 5.264-7.786 5.264c-.745 0-13.451 12.552-13.451 13.287 0 .397-1.257 2.37-2.794 4.384-2.572 3.372-3.248 3.662-8.533 3.662h-5.74V163.2h25.435l1.288-4c.709-2.2 1.674-4.491 2.146-5.092s1.824-4.68 3.004-9.066 2.892-10.076 3.804-12.643c2.475-6.973 2.195-8.39-1.81-9.176-1.907-.374-4.427-1.1-5.6-1.612-2.528-1.104-48.126-9.611-51.515-9.611-4.803 0-16.129 20.769-23.037 42.245-8.589 26.701-10.331 33.2-14.032 52.337-2.136 11.047-4.285 20.863-4.774 21.815-1.627 3.163-8.14 50.146-9.149 66.003l-.645 10.133 4.754 2.934c2.615 1.613 5.09 2.933 5.501 2.933s3.863 1.88 7.672 4.177 10.623 5.493 15.142 7.103 10.136 3.765 12.483 4.79c5.185 2.266 19.543 5.71 30.4 7.291l10.666 1.611c1.467.245 13.947.314 27.734.152 20.265-.237 27.212-.72 36.266-2.52zM22.75 174.646C7.356 158.293 0 139.59 0 116.8c0-15.001 2.432-25.202 9.282-38.933 4.219-8.456 6.65-11.723 14.687-19.734 18.545-18.485 38.028-26.03 63.976-24.775 21.047 1.018 38.705 8.611 53.792 23.13l5.737 5.522-10.003 5.542C94.858 91.162 56.4 129.665 34.059 171.084c-2.403 4.454-4.748 8.333-5.212 8.62s-3.207-1.99-6.096-5.058zm479.963 2.45C476.582 129.17 440.81 92.456 396.12 67.693l-9.747-5.4 2.814-3.29c7.726-9.032 22.622-18.191 36.946-22.717 15.71-4.963 39.151-3.854 55.231 2.611 19.174 7.71 35.63 23.406 44.57 42.513 10.058 21.494 10.016 49.374-.107 71.009-3.812 8.144-10.93 18.273-16.879 24.016l-4.319 4.17z"/><path shape-rendering="geometricPrecision" fill="#8946f3" d="M106.924 531.206c-5.785-3.527-7.9-7.999-7.462-15.774l.377-6.701 23.361-23.507-3.733-3.258c-22.326-19.48-34.33-32.825-47.887-53.237-17.91-26.966-30.316-58.654-35.888-91.662-2.348-13.907-3.234-46.762-1.641-60.808 5.203-45.887 21.927-86.885 49.92-122.377 7.665-9.72 26.48-28.581 36.562-36.655 28.955-23.185 68.808-41.283 104-47.229L232 68.737l.586-34.604-9.36-.023c-15.185-.038-22.463-4.992-23.522-16.01-.594-6.182 2.653-12.808 7.848-16.02C210.778.088 213.25 0 266.667 0c54.778 0 55.811.039 59.374 2.24 7.818 4.833 10.083 16.762 4.634 24.415-3.796 5.331-9.58 7.427-20.568 7.455l-9.36.023.586 34.526 7.467 1.285c28.168 4.845 61.45 18.136 85.867 34.288 36.151 23.915 62.674 53.994 81.621 92.568 17.629 35.889 24.945 70.13 23.666 110.761-.815 25.896-3.768 42.854-11.64 66.839-12.954 39.47-39.53 78.394-72.314 105.914l-5.867 4.925 10.817 10.98c5.95 6.04 11.35 12.03 12 13.31 1.92 3.783 1.427 12.192-.944 16.08-4.363 7.156-14.745 9.941-22.8 6.119-1.861-.883-9.07-7.308-16.021-14.276l-12.638-12.671-11.873 5.7c-20.244 9.72-39.063 15.744-63.607 20.364-8.124 1.53-15.739 1.908-38.4 1.908s-30.276-.378-38.4-1.908c-24.545-4.62-43.364-10.645-63.607-20.363l-11.874-5.701-12.637 12.67c-6.951 6.97-14.16 13.394-16.021 14.277-4.834 2.294-12.992 2.046-17.204-.522zM371.2 333.466c24.702-4.855 43.391-12.85 55.204-23.615 3.665-3.34 6.663-6.553 6.663-7.141s1.448-2.899 3.22-5.135c7.123-8.995 10.871-21.904 10.799-37.196-.075-15.714-2.79-23.632-11.714-34.15-6.054-7.136-15.445-13.329-22.84-15.063-3.08-.721-6.242-1.824-7.029-2.45-1.93-1.535-26.839-1.59-30.14-.066-1.41.651-6.163 2.032-10.563 3.068-9.807 2.31-19.052 6.38-26.268 11.564-3 2.155-5.912 3.918-6.472 3.918-1.272 0-17.402 15.148-17.397 16.338.002.479-1.253 2.519-2.79 4.533-2.573 3.374-3.246 3.662-8.545 3.662h-5.752l.557-88 24.695-.597 2.202-5.043c2.27-5.198 8.758-26.31 9.625-31.318.431-2.495.07-2.908-3.083-3.53-1.965-.386-4.532-1.132-5.705-1.657-2.36-1.057-48.13-9.588-51.436-9.588-3.122 0-6.651 4.658-12.934 17.067-4.854 9.587-14.03 34.121-14.03 37.512 0 .604-.699 2.611-1.552 4.46-2.143 4.642-6.249 21.722-9.655 40.161-1.572 8.507-3.29 16.427-3.817 17.6-1.822 4.05-8.076 49.251-9.131 66.006l-.614 9.727 4.118 2.443c11.011 6.534 29.461 15.601 33.947 16.684 1.74.42 5.1 1.643 7.467 2.719 5.105 2.32 19.266 5.755 30.437 7.382l10.666 1.611c1.467.245 13.947.317 27.734.16 18.092-.204 27.589-.78 34.133-2.066zM22.751 174.646C7.356 158.293 0 139.59 0 116.8c0-15.001 2.432-25.202 9.282-38.933 4.219-8.456 6.65-11.723 14.687-19.734 18.545-18.485 38.028-26.03 63.976-24.775 21.047 1.018 38.705 8.611 53.792 23.13l5.737 5.522-10.003 5.542C94.858 91.162 56.4 129.665 34.059 171.084c-2.403 4.454-4.748 8.333-5.212 8.62s-3.207-1.99-6.096-5.058zm479.963 2.45C476.582 129.17 440.81 92.456 396.12 67.693l-9.747-5.4 2.814-3.29c7.726-9.032 22.622-18.191 36.946-22.717 15.71-4.963 39.151-3.854 55.231 2.611 19.174 7.71 35.63 23.406 44.57 42.513 10.058 21.494 10.016 49.374-.107 71.009-3.812 8.144-10.93 18.273-16.879 24.016l-4.319 4.17z"/></svg>
