<?xml version="1.0" encoding="UTF-8" standalone="no"?>
<svg
   xmlns:dc="http://purl.org/dc/elements/1.1/"
   xmlns:cc="http://creativecommons.org/ns#"
   xmlns:rdf="http://www.w3.org/1999/02/22-rdf-syntax-ns#"
   xmlns:svg="http://www.w3.org/2000/svg"
   xmlns="http://www.w3.org/2000/svg"
   xmlns:sodipodi="http://sodipodi.sourceforge.net/DTD/sodipodi-0.dtd"
   xmlns:inkscape="http://www.inkscape.org/namespaces/inkscape"
   viewBox="0 0 533.449 533.445"
   version="1.1"
   id="svg16"
   sodipodi:docname="pomoTraining-icon-invert.svg"
   inkscape:version="1.0.2 (e86c870879, 2021-01-15)">
  <metadata
     id="metadata22">
    <rdf:RDF>
      <cc:Work
         rdf:about="">
        <dc:format>image/svg+xml</dc:format>
        <dc:type
           rdf:resource="http://purl.org/dc/dcmitype/StillImage" />
        <dc:title></dc:title>
      </cc:Work>
    </rdf:RDF>
  </metadata>
  <defs
     id="defs20" />
  <sodipodi:namedview
     pagecolor="#ffffff"
     bordercolor="#666666"
     borderopacity="1"
     objecttolerance="10"
     gridtolerance="10"
     guidetolerance="10"
     inkscape:pageopacity="0"
     inkscape:pageshadow="2"
     inkscape:window-width="1920"
     inkscape:window-height="1019"
     id="namedview18"
     showgrid="false"
     inkscape:zoom="1.437019"
     inkscape:cx="264.24456"
     inkscape:cy="271.19368"
     inkscape:window-x="0"
     inkscape:window-y="0"
     inkscape:window-maximized="1"
     inkscape:current-layer="svg16"
     inkscape:document-rotation="0" />
  <path
     style="fill:#8946f3;fill-opacity:1;stroke:#ffffff;stroke-width:1;paint-order:markers stroke fill"
     d="m 307.73737,334.78253 c -25.24366,-2.38781 -50.57928,-10.92269 -77.51032,-26.11112 l -7.22595,-4.07525 0.43865,-7.65474 c 0.52757,-9.2064 2.58508,-27.45676 5.02097,-44.53664 1.94078,-13.60835 10.72313,-56.43703 14.55503,-70.98027 8.00909,-30.39691 22.24162,-63.68078 29.17245,-68.22204 1.662,-1.08898 2.35051,-1.06776 11.35245,0.34983 21.03088,3.31186 48.84652,9.43334 50.53447,11.1213 0.45034,0.45033 0.37976,2.06709 -0.20562,4.71027 -1.22207,5.51798 -9.62428,31.04544 -10.67092,32.42017 -0.69109,0.90773 -3.04532,1.20179 -12.74813,1.59233 l -11.90051,0.47899 -0.4552,13.29783 c -0.25035,7.31381 -0.46732,26.91978 -0.48213,43.56882 l -0.0269,30.271 5.6652,0.20321 c 3.49765,0.12545 6.02933,-0.099 6.61687,-0.5866 0.5234,-0.43438 2.12064,-2.56129 3.54942,-4.72646 5.05862,-7.6658 14.45079,-15.9029 26.57962,-23.31082 9.27598,-5.66549 14.93848,-7.97722 29.41702,-12.00959 9.04302,-2.51853 9.63548,-2.59169 21.13388,-2.60963 11.76395,-0.0184 11.87191,-0.004 19.3218,2.4941 4.12047,1.38191 9.54776,3.66235 12.06065,5.06764 9.49724,5.31116 19.53961,17.12507 22.64207,26.63627 1.2317,3.77603 1.58073,6.8173 1.82894,15.93667 0.34027,12.5016 -0.50303,18.57152 -3.8254,27.53482 -3.73324,10.07173 -14.16254,23.31763 -23.3203,29.61834 -9.51759,6.54827 -28.40355,13.85875 -44.36517,17.1731 -7.31613,1.51915 -11.62931,1.90559 -27.13951,2.43153 -21.8329,0.74034 -31.52102,0.72023 -40.01339,-0.0831 z"
     id="path835" />
  <path
     style="fill:#ffffff;fill-opacity:1;stroke:#ffffff;stroke-width:1;paint-order:markers stroke fill"
     d="M 22.503096,173.41506 C 7.5395333,157.75288 0.51434459,139.50379 0.50694267,116.27645 0.50260591,102.6675 2.5941425,93.174795 8.3343112,80.750953 12.115404,72.567271 16.377328,66.508215 23.254882,59.538796 41.897115,40.647553 61.700676,32.61321 86.793885,33.760899 c 21.745775,0.994586 38.429925,8.007692 54.591375,22.947228 l 5.53149,5.113268 -8.95501,5.06408 C 114.19746,80.324237 97.059838,93.42139 77.393912,113.17346 c -17.346441,17.42243 -30.862986,35.16046 -42.95951,56.37662 -2.822936,4.95116 -5.455267,9.10966 -5.849625,9.24111 -0.394358,0.13146 -3.131115,-2.2878 -6.081681,-5.37613 z"
     id="path837" />
  <path
     style="fill:#ffffff;fill-opacity:1;stroke:#ffffff;stroke-width:1;paint-order:markers stroke fill"
     d="m 111.02498,532.25316 c -4.20538,-1.1705 -7.88064,-4.00487 -9.62393,-7.42199 -1.08859,-2.1338 -1.38535,-4.09877 -1.38535,-9.17291 v -6.4574 l 11.91853,-11.93315 11.91852,-11.93314 -3.0378,-2.6877 C 96.750605,461.35597 84.861503,448.09238 71.292931,427.39967 51.123533,396.64037 37.539816,358.36065 34.629857,324.08094 c -1.090224,-12.84299 -0.90788,-42.51905 0.318823,-51.88768 4.256225,-32.50582 14.6904,-63.5056 30.352324,-90.17631 9.936711,-16.92123 19.534087,-29.46256 33.670868,-43.99928 20.328458,-20.90357 36.579738,-32.93913 61.585818,-45.609939 22.9842,-11.64629 43.79109,-18.572698 68.9581,-22.955451 l 2.50109,-0.435557 0.45411,-10.949008 c 0.24976,-6.021955 0.45515,-14.002204 0.45643,-17.733887 l 0.002,-6.784879 H 224.961 c -9.80677,0 -14.06615,-0.866024 -18.26409,-3.713488 -4.1696,-2.828247 -6.02818,-6.43449 -6.33495,-12.291867 -0.20298,-3.87551 0.0441,-5.066345 1.72567,-8.3157247 1.07941,-2.0858603 3.12282,-4.712718 4.5409,-5.8374623 2.47719,-1.9647665 2.98222,-2.0704028 12.87387,-2.6928048 14.62256,-0.92007931 100.70064,-0.28570366 104.02595,0.7666474 3.3403,1.0570934 7.77793,6.111588 8.90738,10.1455724 2.27281,8.117672 -0.89487,15.873798 -7.95836,19.486201 -3.88117,1.984903 -4.59913,2.104814 -14.0685,2.349671 l -9.9786,0.258024 0.003,7.751322 c 0.001,4.263227 0.20471,12.170034 0.45178,17.570682 l 0.44923,9.819361 10.85635,2.1725 c 19.96006,3.994261 41.3035,11.466897 60.74365,21.267199 33.32232,16.798668 63.27852,42.728538 84.32611,72.992068 17.2654,24.82524 31.05856,55.87116 37.31815,83.99645 3.19429,14.35243 4.3102,24.90834 4.68204,44.28952 0.51405,26.79353 -1.05101,42.89103 -6.07931,62.52883 -4.424,17.2777 -9.14349,30.29922 -16.39399,45.23252 -11.28494,23.24276 -25.59516,43.52285 -44.12769,62.53669 -7.19548,7.38234 -19.40941,18.63188 -22.90178,21.09347 -0.15115,0.10653 4.61805,5.21423 10.59822,11.35044 5.98017,6.1362 11.40651,12.17112 12.05855,13.41093 1.83716,3.49323 1.55933,10.7878 -0.56908,14.94161 -2.9366,5.73105 -10.90586,9.38523 -17.89336,8.20469 -4.28905,-0.72462 -7.92466,-3.54133 -21.26353,-16.47399 l -12.28239,-11.90837 -9.19484,4.3603 c -22.79759,10.81089 -41.99262,17.09454 -66.2574,21.68992 -7.87625,1.49164 -10.05045,1.58106 -38.27368,1.57415 -32.93187,-0.008 -32.86447,-0.002 -53.22169,-4.88325 -18.88665,-4.52874 -32.24776,-9.29886 -50.88758,-18.16765 l -9.74842,-4.63829 -9.18023,9.0439 c -11.44661,11.27661 -17.43018,16.68439 -19.83933,17.93021 -2.85509,1.47643 -9.06855,1.89667 -12.77792,0.86423 z m 252.51252,-197.43 c 9.55162,-0.90503 17.82145,-2.75634 29.10502,-6.51556 21.64667,-7.21179 33.20663,-14.80106 42.47705,-27.88675 8.78786,-12.40451 11.39921,-20.1671 11.94667,-35.51296 0.66282,-18.57969 -1.42465,-26.44837 -9.79352,-36.91647 -7.16556,-8.96294 -14.87907,-14.10995 -27.7813,-18.5377 -6.34947,-2.17899 -6.55488,-2.20158 -19.29167,-2.1207 l -12.87388,0.0817 -9.84134,2.84479 c -10.79551,3.1206 -18.03638,5.91422 -23.90908,9.22442 -12.56196,7.08066 -24.81314,17.37457 -31.00485,26.05148 -3.47663,4.87206 -5.34093,5.6811 -11.10083,4.81735 l -3.12684,-0.46891 10e-4,-23.44347 c 6.9e-4,-12.89391 0.20767,-32.13335 0.45984,-42.75429 l 0.45851,-19.31081 5.2812,-0.003 c 2.90466,-0.002 8.30476,-0.20384 12.00023,-0.44857 7.92865,-0.52508 6.72033,0.97146 12.11743,-15.00787 4.86842,-14.41408 6.6985,-21.06002 6.43307,-23.3617 -0.1976,-1.71348 -0.71503,-2.02894 -5.61127,-3.42098 -8.18255,-2.32637 -26.44882,-6.12277 -41.45834,-8.61655 -12.57462,-2.08923 -13.59724,-2.16411 -15.72144,-1.15114 -6.52573,3.1119 -20.1692,33.49452 -28.83511,64.21281 -3.15966,11.20013 -9.9616,42.71847 -13.96131,64.69289 -2.98826,16.41715 -7.01567,50.69334 -7.01567,59.70794 v 4.41696 l 6.43694,3.5316 c 29.99107,16.45448 53.93135,24.45165 80.54869,26.90702 5.35689,0.49416 46.24489,-0.27058 54.06041,-1.0111 z"
     id="path839" />
  <path
     style="fill:#ffffff;fill-opacity:1;stroke:#ffffff;stroke-width:1;paint-order:markers stroke fill"
     d="m 499.10644,170.06944 c -21.89495,-38.00512 -50.65932,-69.03586 -85.07107,-91.773947 -5.67743,-3.751446 -13.98835,-8.856275 -18.46871,-11.344064 -4.48036,-2.487789 -8.14709,-4.77323 -8.14828,-5.078759 -0.005,-1.198643 9.83841,-10.171041 14.69591,-13.395938 19.40415,-12.882425 38.40535,-17.194064 60.99288,-13.840138 18.2154,2.704726 33.92643,10.870868 46.61594,24.229631 15.59295,16.415321 23.13306,35.268309 23.13306,57.840985 0,21.75003 -6.53513,39.02054 -21.32379,56.35276 -2.43252,2.8509 -4.98927,5.48664 -5.68167,5.8572 -1.09786,0.58756 -1.96058,-0.54422 -6.74427,-8.84773 z"
     id="path841" />
</svg>
